<svg width="173" height="42" viewBox="0 0 173 42" fill="none" xmlns="http://www.w3.org/2000/svg">
<g clip-path="url(#clip0_1237_26947)">
<path d="M24.4822 5.60355L24.4863 5.60903C24.9863 6.2767 24.8516 7.22579 24.1856 7.72709L12.5238 16.505C12.4287 16.5766 12.2934 16.5573 12.222 16.462L11.8296 15.938C11.1154 14.9844 11.3079 13.6283 12.2592 12.9122L22.3695 5.30211C23.0354 4.80081 23.9822 4.93588 24.4822 5.60355Z" fill="#ED2DA0"/>
<path d="M17.0178 36.479L17.0137 36.4735C16.5137 35.8058 16.6484 34.8567 17.3144 34.3554L28.9469 25.5995C29.042 25.528 29.1773 25.5473 29.2487 25.6426L29.6411 26.1665C30.3553 27.1202 30.1628 28.4763 29.2115 29.1923L19.1305 36.7804C18.4646 37.2817 17.5178 37.1466 17.0178 36.479Z" fill="#ED2DA0"/>
<path d="M18.473 24.4536L20.5482 22.8938C20.6435 22.8222 20.6628 22.6867 20.5914 22.5912L16.151 16.6537C16.0796 16.5582 15.9445 16.5388 15.8492 16.6104L13.774 18.1702C13.6788 18.2418 13.6594 18.3773 13.7309 18.4727L18.1712 24.4103C18.2426 24.5058 18.3778 24.5252 18.473 24.4536Z" fill="#ED2DA0"/>
<path d="M25.6246 25.4827L27.6987 23.9215C27.7939 23.8498 27.8131 23.7144 27.7417 23.6189L23.2963 17.6833C23.2248 17.5879 23.0897 17.5686 22.9945 17.6403L20.9204 19.2015C20.8251 19.2732 20.8059 19.4086 20.8774 19.5041L25.3228 25.4397C25.3943 25.5351 25.5294 25.5544 25.6246 25.4827Z" fill="#ED2DA0"/>
<path d="M27.5295 9.71281L27.5336 9.71829C28.0338 10.3859 27.8992 11.335 27.2333 11.8364L19.7325 17.4844C19.6073 17.5787 19.4289 17.5535 19.3346 17.4277L17.8591 15.4583C17.7651 15.3328 17.7902 15.154 17.9157 15.0594L25.4165 9.41145C26.0824 8.91003 27.0291 9.04494 27.5293 9.71253L27.5295 9.71281Z" fill="#ED2DA0"/>
<path d="M13.9373 32.3695L13.9332 32.364C13.433 31.6964 13.5676 30.7473 14.2335 30.2459L21.7343 24.5979C21.8595 24.5036 22.0379 24.5287 22.1322 24.6546L23.6076 26.6239C23.7017 26.7495 23.6766 26.9283 23.5511 27.0229L16.0503 32.6708C15.3844 33.1722 14.4377 33.0373 13.9375 32.3697L13.9373 32.3695Z" fill="#ED2DA0"/>
</g>
<g clip-path="url(#clip1_1237_26947)">
<path d="M39.8496 28.1018C38.8698 27.657 38.0945 27.0533 37.5227 26.2907C36.9513 25.5281 36.6384 24.6838 36.584 23.7578H40.421C40.4931 24.3392 40.7792 24.8201 41.2784 25.2012C41.7773 25.5826 42.3985 25.773 43.1425 25.773C43.8864 25.773 44.4351 25.6279 44.8432 25.3374C45.2512 25.0472 45.4555 24.675 45.4555 24.2206C45.4555 23.7305 45.2059 23.3629 44.707 23.1176C44.2078 22.8724 43.4144 22.6049 42.326 22.314C41.201 22.0416 40.2803 21.7602 39.5639 21.4697C38.8469 21.1795 38.2306 20.7344 37.7133 20.1353C37.1964 19.5362 36.9379 18.7284 36.9379 17.7114C36.9379 16.8762 37.178 16.1137 37.6592 15.4236C38.1397 14.734 38.8295 14.189 39.7273 13.7895C40.6254 13.3904 41.6818 13.1904 42.8978 13.1904C44.6939 13.1904 46.127 13.6398 47.1976 14.5386C48.2679 15.4374 48.8576 16.6494 48.9665 18.1746H45.3201C45.2657 17.5755 45.016 17.0988 44.5716 16.7446C44.1268 16.3907 43.5328 16.2135 42.7892 16.2135C42.0994 16.2135 41.569 16.3409 41.1971 16.5949C40.8251 16.8494 40.6391 17.2036 40.6391 17.6572C40.6391 18.1657 40.893 18.5518 41.4011 18.8147C41.9088 19.078 42.698 19.3458 43.7686 19.6183C44.8573 19.8908 45.7554 20.1725 46.4629 20.4626C47.1704 20.7531 47.7828 21.2025 48.2997 21.8108C48.8166 22.4195 49.0843 23.2227 49.1027 24.221C49.1027 25.0925 48.8619 25.8735 48.3814 26.5632C47.9005 27.2536 47.211 27.7936 46.3133 28.1835C45.4152 28.5738 44.3676 28.7692 43.17 28.7692C41.9725 28.7692 40.8297 28.5466 39.85 28.1018H39.8496Z" fill="white"/>
<path d="M56.1957 16.8154V24.1145C56.1957 24.623 56.318 24.9906 56.563 25.2175C56.8081 25.4446 57.2203 25.5579 57.8012 25.5579H59.5702V28.7716H57.1754C53.9642 28.7716 52.3587 27.2104 52.3587 24.0872V16.8154H50.5625V13.6834H52.3587V9.9519H56.1957V13.683H59.5702V16.815H56.1957V16.8154Z" fill="white"/>
<path d="M64.6597 27.8021C63.4986 27.1577 62.5867 26.2454 61.9248 25.0649C61.2622 23.8848 60.9316 22.5232 60.9316 20.9796C60.9316 19.4361 61.2718 18.0748 61.9521 16.8943C62.6323 15.7142 63.5619 14.8019 64.7414 14.1572C65.9206 13.5128 67.2355 13.1904 68.6873 13.1904C70.1391 13.1904 71.4537 13.5132 72.6332 14.1572C73.8124 14.8019 74.7423 15.7142 75.4226 16.8943C76.1028 18.0748 76.443 19.4364 76.443 20.9796C76.443 22.5228 76.0933 23.8848 75.3953 25.0649C74.6967 26.2454 73.7533 27.1577 72.5653 27.8021C71.377 28.4468 70.0482 28.7688 68.5788 28.7688C67.1093 28.7688 65.8209 28.4468 64.6601 27.8021H64.6597ZM70.5241 24.9425C71.1319 24.6067 71.617 24.1028 71.9802 23.4308C72.3429 22.7592 72.5243 21.9421 72.5243 20.9796C72.5243 19.5454 72.1474 18.4424 71.395 17.6707C70.6419 16.8992 69.7215 16.5132 68.6329 16.5132C67.5442 16.5132 66.6327 16.8992 65.898 17.6707C65.1632 18.4428 64.7959 19.5458 64.7959 20.9796C64.7959 22.4135 65.154 23.5172 65.8707 24.2886C66.5871 25.0603 67.4898 25.446 68.5784 25.446C69.2675 25.446 69.916 25.2783 70.5241 24.9422V24.9425Z" fill="white"/>
<path d="M84.574 14.1818C85.3632 13.7282 86.2655 13.501 87.2817 13.501V17.5046H86.2747C85.0771 17.5046 84.1744 17.7862 83.567 18.3489C82.9588 18.9119 82.6555 19.8924 82.6555 21.2902V28.8072H78.8457V13.719H82.6555V16.0612C83.1452 15.2625 83.7848 14.6358 84.574 14.1818Z" fill="white"/>
<path d="M104.358 13.3651L95.0237 35.589H90.9689L94.2345 28.0719L88.1934 13.3647H92.466L96.3574 23.9048L100.303 13.3647H104.358L104.358 13.3651Z" fill="white"/>
<path d="M109.95 8.65283V28.807H106.141V8.65283H109.95Z" fill="white"/>
<path d="M112.496 17.1147C113.103 15.9346 113.929 15.0269 114.972 14.391C116.015 13.7555 117.18 13.4377 118.469 13.4377C119.594 13.4377 120.578 13.6649 121.422 14.1186C122.265 14.5726 122.941 15.1444 123.449 15.8344V13.683H127.286V28.7712H123.449V26.5653C122.959 27.2734 122.283 27.859 121.422 28.3218C120.559 28.7847 119.566 29.0165 118.442 29.0165C117.172 29.0165 116.015 28.6895 114.972 28.0359C113.929 27.3823 113.103 26.4609 112.496 25.2716C111.887 24.0826 111.584 22.716 111.584 21.1728C111.584 19.6296 111.888 18.2952 112.496 17.1147ZM122.905 18.8444C122.542 18.182 122.052 17.6731 121.435 17.3192C120.818 16.965 120.156 16.7881 119.449 16.7881C118.741 16.7881 118.088 16.9608 117.489 17.3054C116.891 17.6505 116.405 18.1544 116.033 18.8171C115.661 19.4803 115.475 20.2651 115.475 21.1731C115.475 22.0812 115.661 22.8752 116.033 23.556C116.405 24.2369 116.895 24.7592 117.503 25.1222C118.11 25.4856 118.759 25.6668 119.449 25.6668C120.138 25.6668 120.818 25.4899 121.435 25.1357C122.052 24.7815 122.541 24.2733 122.904 23.6105C123.267 22.9481 123.449 22.1533 123.449 21.2276C123.449 20.3019 123.267 19.5075 122.904 18.8447L122.905 18.8444Z" fill="white"/>
<path d="M142.65 15.203C143.756 16.3379 144.31 17.9225 144.31 19.9558V28.8072H140.5V20.4731C140.5 19.2749 140.2 18.3535 139.602 17.7087C139.003 17.0644 138.187 16.742 137.153 16.742C136.118 16.742 135.27 17.0647 134.663 17.7087C134.055 18.3535 133.751 19.2749 133.751 20.4731V28.8072H129.941V13.719H133.751V15.5983C134.259 14.9447 134.908 14.432 135.697 14.0594C136.486 13.6875 137.352 13.501 138.296 13.501C140.092 13.501 141.543 14.0686 142.65 15.203H142.65Z" fill="white"/>
<path d="M160.87 22.1236H149.849C149.939 23.2132 150.32 24.0667 150.992 24.6838C151.663 25.3013 152.488 25.6099 153.468 25.6099C154.883 25.6099 155.89 25.002 156.489 23.785H160.598C160.163 25.238 159.328 26.4316 158.094 27.3665C156.86 28.3017 155.346 28.7692 153.55 28.7692C152.098 28.7692 150.797 28.4471 149.645 27.8024C148.492 27.158 147.594 26.2458 146.95 25.0653C146.306 23.8852 145.984 22.5235 145.984 20.98C145.984 19.4364 146.302 18.0479 146.937 16.8674C147.572 15.6873 148.461 14.7796 149.604 14.1437C150.747 13.5082 152.062 13.1904 153.55 13.1904C155.038 13.1904 156.266 13.4994 157.401 14.1165C158.534 14.734 159.415 15.6101 160.04 16.7446C160.666 17.8794 160.979 19.182 160.979 20.653C160.979 21.1976 160.943 21.688 160.87 22.1236H160.87ZM157.033 19.5635C157.014 18.5829 156.661 17.7977 155.971 17.2075C155.281 16.6176 154.438 16.3225 153.44 16.3225C152.497 16.3225 151.703 16.6084 151.059 17.1802C150.415 17.7521 150.02 18.5468 149.875 19.5635H157.033Z" fill="white"/>
</g>
<defs>
<clipPath id="clip0_1237_26947">
<rect width="18.6763" height="32.082" fill="white" transform="translate(11.3965 5)"/>
</clipPath>
<clipPath id="clip1_1237_26947">
<rect width="124.395" height="26.9359" fill="white" transform="translate(36.584 8.49414)"/>
</clipPath>
</defs>
</svg>
