<svg xmlns="http://www.w3.org/2000/svg" viewBox="0 0 428.78 111.58"><defs><style>.cls-1{fill:#333;}.cls-2{fill:#ec008c;}</style></defs><g id="Layer_2" data-name="Layer 2"><g id="Layer_1-2" data-name="Layer 1"><path class="cls-1" d="M100.23,53.31a9.92,9.92,0,0,1,4-8Q108.33,42,115,42t10.75,3.22A11.26,11.26,0,0,1,130.11,54h-9.56c-.26-3.1-2.17-4.65-5.71-4.65a6.92,6.92,0,0,0-4.12,1.07,3.41,3.41,0,0,0-1.46,2.91,3.24,3.24,0,0,0,2.19,2.92,21.4,21.4,0,0,0,5.32,1.66c2.07.4,4.15.89,6.2,1.49a11.74,11.74,0,0,1,5.28,3.18,8.42,8.42,0,0,1,2.19,6.07,9.62,9.62,0,0,1-4.21,8.09,17.62,17.62,0,0,1-10.76,3.12,17.55,17.55,0,0,1-10.72-3.09,11.37,11.37,0,0,1-4.59-8.85h9.57c.35,3.1,2.32,4.64,5.9,4.64a6.91,6.91,0,0,0,4.19-1.16,3.6,3.6,0,0,0,1.59-3,3.32,3.32,0,0,0-2.19-3,20.23,20.23,0,0,0-5.31-1.69q-3.12-.6-6.21-1.46a11.67,11.67,0,0,1-5.28-3.09A7.9,7.9,0,0,1,100.23,53.31Z"/><path class="cls-1" d="M154,71.48h4.45v7.83h-5.91c-3.77,0-6.67-.87-8.7-2.59s-3.06-4.58-3.06-8.55v-18h-3.91V42.57h3.91V33.49h9.37v9.08h8.23V50.2h-8.23v18a3.24,3.24,0,0,0,.86,2.55A4.52,4.52,0,0,0,154,71.48Z"/><path class="cls-1" d="M170,74.6q-5.37-5.23-5.38-13.73T170,47.21a20.24,20.24,0,0,1,27,0q5.46,5.17,5.45,13.66T197,74.6a18.9,18.9,0,0,1-13.58,5.24A18.56,18.56,0,0,1,170,74.6ZM183.43,72a9.08,9.08,0,0,0,6.74-2.89Q193,66.18,193,60.91t-2.79-8.13a9.05,9.05,0,0,0-6.73-2.85,8.88,8.88,0,0,0-6.68,2.85q-2.72,2.85-2.72,8.16t2.72,8.16A8.84,8.84,0,0,0,183.43,72Z"/><path class="cls-1" d="M220.62,42.57v6.5q3.7-7,10.75-7v9.55h-2.32c-2.79,0-4.89.69-6.31,2.09s-2.12,3.79-2.12,7.19V79.31h-9.37V42.57Z"/><path class="cls-1" d="M249.23,78.64l-14.4-36.07h10.49l9.36,26.13,9.89-26.13h9.76l-23,54.11H241.6Z"/><path class="cls-1" d="M281.11,79.31V30.24h9.36V79.31Z"/><path class="cls-1" d="M304.11,74.5q-5-5.34-4.94-13.63t4.91-13.56A16.33,16.33,0,0,1,316.56,42a12.9,12.9,0,0,1,11.56,6.23v-5.7h9.29V79.31h-9.29V73.14q-4.19,6.7-11.62,6.7A16.19,16.19,0,0,1,304.11,74.5Zm21.09-5.64a10.65,10.65,0,0,0,2.92-7.92A10.65,10.65,0,0,0,325.2,53a9.55,9.55,0,0,0-13.65,0q-2.9,2.85-2.89,7.89a10.77,10.77,0,0,0,2.92,8,9.43,9.43,0,0,0,13.62,0Z"/><path class="cls-1" d="M358.06,42.57v5.5q3.53-6,11.43-6a13.66,13.66,0,0,1,10.29,4.14q4,4.16,4,11.51V79.31h-9.29V59q0-4.32-2.2-6.6a7.86,7.86,0,0,0-6-2.29,8,8,0,0,0-6,2.29c-1.48,1.52-2.23,3.72-2.23,6.6V79.31H348.7V42.57Z"/><path class="cls-1" d="M410.26,79.84a17.4,17.4,0,0,1-13.08-5.21q-5.06-5.2-5.05-13.76t5.08-13.69A17.67,17.67,0,0,1,410.36,42a18.26,18.26,0,0,1,13.24,5q5.19,5,5.18,13.36a23.62,23.62,0,0,1-.26,3.58H401.69a8.72,8.72,0,0,0,2.66,5.77A8.28,8.28,0,0,0,410.26,72a7.74,7.74,0,0,0,7.17-4h10.09a16.13,16.13,0,0,1-6.17,8.55A18.42,18.42,0,0,1,410.26,79.84Zm6.14-27.72a8.78,8.78,0,0,0-6-2.19,8.3,8.3,0,0,0-5.88,2.19A9.29,9.29,0,0,0,401.69,58h17.4A8,8,0,0,0,416.4,52.12Z"/><path class="cls-2" d="M3.48,40.5,44.7,9.42a5.22,5.22,0,0,0,1-7.33h0a5.24,5.24,0,0,0-7.34-1L2.82,27.87A7.09,7.09,0,0,0,1.43,37.8Z"/><path class="cls-2" d="M30.31,43.23,56.64,23.38a5.28,5.28,0,0,0,1-7.41h0a5.28,5.28,0,0,0-7.4-1L23.93,34.79a.63.63,0,0,0-.12.87l5.63,7.45A.63.63,0,0,0,30.31,43.23Z"/><path class="cls-2" d="M28.31,110.53l33.43-25.2a10.43,10.43,0,0,0,2-14.61h0L22,102.2a5.22,5.22,0,0,0-1,7.31h0A5.23,5.23,0,0,0,28.31,110.53Z"/><path class="cls-2" d="M17.42,95.56l27.4-20.65a.32.32,0,0,0,.06-.45L38.94,66.6a.32.32,0,0,0-.45-.07L11.1,87.18a5.25,5.25,0,0,0-1,7.36h0A5.25,5.25,0,0,0,17.42,95.56Z"/><polygon class="cls-2" points="59.22 64.73 42.95 43.21 34.58 49.52 50.85 71.04 59.22 64.73"/><polygon class="cls-2" points="32.33 62.13 15.95 40.45 7.58 46.77 23.96 68.44 32.33 62.13"/></g></g></svg>