<svg width="137" height="32" viewBox="0 0 137 32" fill="none" xmlns="http://www.w3.org/2000/svg">
<path d="M24.2266 14.1145C24.2266 13.037 24.7649 11.9596 25.6261 11.2054C26.7027 10.3434 28.1023 10.0202 29.5019 10.0202C30.9014 9.91243 32.1933 10.3434 33.3776 11.2054C34.3465 11.9596 34.8848 13.1448 34.8848 14.3299H31.5474C31.4397 13.2525 30.7938 12.7138 29.5019 12.7138C28.9636 12.7138 28.4253 12.8215 27.9946 13.1448C27.6717 13.3602 27.4563 13.7912 27.4563 14.2222C27.4563 14.7609 27.7793 15.1919 28.21 15.2996C28.8559 15.6229 29.5019 15.7306 30.1478 15.9461C30.9014 16.0538 31.6551 16.2693 32.301 16.4848C33.0546 16.7003 33.7006 17.1313 34.2389 17.67C34.7772 18.2087 35.1001 19.0707 34.9925 19.8249C34.9925 21.0101 34.4542 22.0875 33.4853 22.734C32.4087 23.4882 31.0091 23.9192 29.6095 23.8114C28.21 23.9192 26.918 23.4882 25.8415 22.734C24.8725 21.9798 24.2266 20.7946 24.2266 19.6094H27.6717C27.7793 20.6868 28.5329 21.2256 29.8248 21.2256C30.3631 21.2256 30.9014 21.1178 31.3321 20.7946C31.6551 20.5791 31.8704 20.1481 31.8704 19.7171C31.8704 19.1784 31.5474 18.8552 31.1168 18.6397C30.4708 18.3165 29.8248 18.101 29.1789 17.9932C28.4253 17.8855 27.6717 17.67 27.0257 17.4545C26.2721 17.239 25.6261 16.8081 25.0878 16.2693C24.5495 15.6229 24.2266 14.8687 24.2266 14.1145Z" fill="white"/>
<path d="M42.9569 20.5789H44.5718V23.3802H42.4186C41.342 23.4879 40.1577 23.1647 39.2965 22.4105C38.5429 21.5485 38.1122 20.4711 38.2199 19.3937V12.929H36.8203V10.3432H38.2199V7.11084H41.5573V10.3432H44.5718V13.0368H41.665V19.5014C41.665 19.8246 41.7726 20.1479 41.988 20.4711C42.2033 20.5789 42.5263 20.6866 42.9569 20.5789Z" fill="white"/>
<path d="M48.0184 21.7639C46.7264 20.471 45.9728 18.6393 46.0805 16.8077C45.9728 14.976 46.7264 13.2521 48.0184 11.9592C50.8175 9.48106 54.9085 9.48106 57.7077 11.9592C58.9996 13.2521 59.7532 14.976 59.6456 16.8077C59.7532 18.6393 58.9996 20.471 57.7077 21.7639C56.4158 23.0568 54.6932 23.7033 52.863 23.5955C51.1405 23.7033 49.3103 22.9491 48.0184 21.7639ZM52.863 20.7942C53.832 20.7942 54.6932 20.3632 55.2315 19.7167C55.9851 18.9625 56.3081 17.8851 56.2005 16.8077C56.3081 15.7302 55.8775 14.6528 55.2315 13.8986C54.5856 13.2521 53.7243 12.9289 52.863 12.9289C52.0017 12.9289 51.1405 13.2521 50.4945 13.8986C49.8486 14.6528 49.4179 15.7302 49.5256 16.8077C49.4179 17.8851 49.8486 18.9625 50.4945 19.7167C51.1405 20.471 52.0017 20.7942 52.863 20.7942Z" fill="white"/>
<path d="M65.2437 10.3434V12.606C65.8896 11.0976 67.3969 10.1279 69.1194 10.1279V13.5757H68.2581C67.3969 13.468 66.6433 13.7912 65.9973 14.33C65.459 15.0842 65.136 15.9461 65.2437 16.9158V23.4882H61.9062V10.3434H65.2437Z" fill="white"/>
<path d="M75.4723 23.1646L70.3047 10.2354H74.0728L77.4102 19.6091L80.9629 10.2354H84.4081L76.2259 29.6293H72.7808L75.4723 23.1646Z" fill="white"/>
<path d="M86.3438 23.3802V5.81787H89.6812V23.3802H86.3438Z" fill="white"/>
<path d="M93.4529 21.6564C92.2687 20.3635 91.6227 18.5318 91.7304 16.8079C91.6227 14.9763 92.2687 13.2524 93.4529 11.9594C94.6372 10.6665 96.2521 10.0201 97.8669 10.1278C99.5895 10.0201 101.097 10.882 101.958 12.3904V10.3433H105.295V23.4881H101.958V21.3332C101.097 22.8416 99.4818 23.7036 97.8669 23.7036C96.1444 23.7036 94.5295 22.9493 93.4529 21.6564ZM100.989 19.717C101.743 18.9628 102.066 17.8854 102.066 16.9157C102.066 15.8382 101.743 14.8685 100.989 14.1143C99.6972 12.8214 97.544 12.7137 96.1444 14.0066C96.1444 14.0066 96.1444 14.0066 96.0367 14.1143C95.2831 14.8685 94.9601 15.946 95.0678 16.9157C95.0678 17.9931 95.3908 18.9628 96.1444 19.717C96.7904 20.3635 97.6516 20.7945 98.6206 20.7945C99.4818 20.6867 100.343 20.3635 100.989 19.717Z" fill="white"/>
<path d="M111.001 10.3432V12.2826C111.863 10.8819 113.37 10.02 115.093 10.1277C116.492 10.1277 117.784 10.6664 118.753 11.6361C119.722 12.7136 120.26 14.222 120.153 15.7304V23.488H116.815V16.1614C116.923 15.2994 116.6 14.4375 116.061 13.791C115.523 13.2523 114.662 12.9291 113.908 12.9291C113.155 12.9291 112.293 13.1445 111.755 13.791C111.217 14.4375 110.894 15.2994 111.001 16.1614V23.3802H107.664V10.3432H111.001Z" fill="white"/>
<path d="M128.549 23.5957C126.827 23.7034 125.104 22.9492 123.92 21.764C122.736 20.4711 122.09 18.6395 122.09 16.8078C121.982 14.9762 122.628 13.2522 123.92 11.8516C125.104 10.6664 126.827 9.91218 128.549 10.0199C130.272 9.91218 131.994 10.5586 133.286 11.7438C134.578 13.0368 135.224 14.7607 135.116 16.4846C135.116 16.9155 135.116 17.3465 135.009 17.7775H125.427C125.427 18.5317 125.858 19.2859 126.396 19.8246C126.934 20.3634 127.796 20.6866 128.549 20.5788C129.626 20.5788 130.487 20.1479 131.025 19.1782H134.686C134.363 20.3634 133.609 21.4408 132.533 22.195C131.348 23.2724 129.949 23.7034 128.549 23.5957ZM130.702 13.6832C130.056 13.1445 129.303 12.929 128.549 12.929C127.796 12.929 126.934 13.1445 126.396 13.6832C125.858 14.2219 125.427 14.9762 125.427 15.7304H131.671C131.564 14.9762 131.241 14.2219 130.702 13.6832Z" fill="white"/>
<path d="M12.815 4.63276C13.3533 4.20179 13.461 3.44758 13.0303 2.90886C12.5997 2.37014 11.7384 2.26239 11.2001 2.58563L2.58738 8.72704L2.47972 8.83478C1.51079 9.58899 1.29547 11.0974 2.15674 12.0671L2.2644 12.2826L12.815 4.63276Z" fill="#DF0E7B"/>
<path d="M7.54168 10.774C7.43402 10.8817 7.43402 10.9894 7.54168 11.0972L8.94125 12.8211C9.04891 12.9288 9.15657 12.9288 9.26423 12.8211L15.9391 7.97261H16.0468C16.5851 7.54163 16.6927 6.78742 16.2621 6.2487C15.8314 5.70998 14.9702 5.60224 14.4319 5.92547L7.54168 10.774Z" fill="#DF0E7B"/>
<path d="M17.7687 19.8249L17.661 19.6094L7.00276 27.3669H6.8951C6.35681 27.7979 6.24915 28.5521 6.67978 29.0909C7.11042 29.6296 7.9717 29.7373 8.50999 29.4141L17.2304 23.1649L17.3381 23.0572C18.4146 22.303 18.63 20.7946 17.7687 19.8249Z" fill="#DF0E7B"/>
<path d="M12.7066 20.6865C12.8142 20.5788 12.8142 20.4711 12.7066 20.3633L11.307 18.6394C11.1994 18.5317 11.0917 18.5317 10.984 18.6394L4.30917 23.7034C3.77087 24.1344 3.66321 24.8886 4.09385 25.4273C4.52448 25.966 5.38576 26.0737 5.92406 25.7505L12.7066 20.6865Z" fill="#DF0E7B"/>
<path d="M10.2344 14.4376L14.4331 19.7171L16.4786 18.1009L12.3876 12.9292L10.2344 14.4376Z" fill="#DF0E7B"/>
<path d="M9.69565 17.5622L5.49694 12.2827L3.34375 13.7911L7.54246 19.0706L9.69565 17.5622Z" fill="#DF0E7B"/>
</svg>
